<svg width="52" height="52" viewBox="0 0 52 52" fill="none" xmlns="http://www.w3.org/2000/svg">
<path d="M26 2.16666C19.7458 2.1031 13.7223 4.52531 9.25321 8.90093C4.78415 13.2765 2.23522 19.2475 2.16663 25.5017C2.19072 30.4442 3.78067 35.2519 6.70809 39.2343C9.63552 43.2167 13.7498 46.1688 18.46 47.6667C19.6516 47.8833 20.085 47.1683 20.085 46.54C20.085 45.9117 20.085 44.525 20.085 42.575C13.455 43.9833 12.0466 39.455 12.0466 39.455C11.6053 38.0334 10.667 36.8183 9.40329 36.0317C7.23663 34.6017 9.57663 34.6233 9.57663 34.6233C10.3255 34.7234 11.0421 34.9918 11.6725 35.4083C12.3029 35.8249 12.8308 36.3787 13.2166 37.0283C13.889 38.1943 14.9923 39.0496 16.289 39.4102C17.5857 39.7709 18.9721 39.608 20.15 38.9567C20.2711 37.7701 20.8084 36.6648 21.6666 35.8367C16.38 35.2517 10.8333 33.2583 10.8333 24.31C10.786 21.9758 11.6485 19.7147 13.2383 18.005C12.5143 16.001 12.5997 13.7937 13.4766 11.8517C13.4766 11.8517 15.4916 11.2233 19.9766 14.235C23.8807 13.1946 27.9892 13.1946 31.8933 14.235C36.4433 11.2233 38.3933 11.8517 38.3933 11.8517C39.2702 13.7937 39.3557 16.001 38.6316 18.005C40.2584 19.6834 41.1676 21.9293 41.1666 24.2667C41.1666 33.2367 35.5766 35.2083 30.3333 35.7933C30.9074 36.3507 31.3509 37.0284 31.6319 37.7777C31.9129 38.527 32.0243 39.3292 31.9583 40.1267V46.5183C31.9583 46.5183 32.3916 47.8833 33.5833 47.645C38.2801 46.1379 42.3805 43.185 45.2989 39.2083C48.2172 35.2315 49.8043 30.4343 49.8333 25.5017C49.7647 19.2475 47.2158 13.2765 42.7467 8.90093C38.2776 4.52531 32.2541 2.1031 26 2.16666" fill="white"/>
</svg>
